# xmcd
#
# Track frame offsets:
#  150
#  12457
#  28220
#  43407
#  59675
#  71587
#  86332
#  99612
#  115360
#  128632
#  146137
#  159992
#  178762
#  190710
#  207587
#  223312
#  240432
#  255852
#  275140
#
# Disc length: 3912 seconds
#
# Revision: 2
# Processed by: cddbd v1.5.1PL2 Copyright (c) Steve Scherf et al.
# Submitted via: Collectorz.com_Music_Collector 6.9
#
DISCID=250f4613
DTITLE=Tanya Tucker - Greatest Hits [Disc 2]
DYEAR=1997
DGENRE=Country
TTITLE0=Strong Enough to Bend
TTITLE1=Highway Robbery
TTITLE2=Call on Me
TTITLE3=My Arms Stay Open All Night
TTITLE4=Walking Shoes
TTITLE5=Don't Go Out
TTITLE6=It Won't Be Me
TTITLE7=Down to My Last Teardrop
TTITLE8=(Without You) What Do I Do With Me?
TTITLE9=Some Kind of Trouble
TTITLE10=If Your Heart Ain't Busy Tonight
TTITLE11=Two Sparrows in a Hurricane
TTITLE12=It's a Little Too Late
TTITLE13=Tell Me About it
TTITLE14=Soon
TTITLE15=Hangin' In
TTITLE16=We Don't Have to Do This
TTITLE17=You Just Watch Me
TTITLE18=Little Things
EXTD=
EXTT0=
EXTT1=
EXTT2=
EXTT3=
EXTT4=
EXTT5=
EXTT6=
EXTT7=
EXTT8=
EXTT9=
EXTT10=
EXTT11=
EXTT12=
EXTT13=
EXTT14=
EXTT15=
EXTT16=
EXTT17=
EXTT18=
PLAYORDER=
